<?xml version="1.0" standalone="no"?>
<!DOCTYPE svg PUBLIC "-//W3C//DTD SVG 20010904//EN"
 "http://www.w3.org/TR/2001/REC-SVG-20010904/DTD/svg10.dtd">
<svg version="1.0" xmlns="http://www.w3.org/2000/svg"
 width="512.000000pt" height="512.000000pt" viewBox="0 0 512.000000 512.000000"
 preserveAspectRatio="xMidYMid meet">

<g transform="translate(0.000000,512.000000) scale(0.100000,-0.100000)"
fill="#000000" stroke="none">
<path d="M2401 4770 c-458 -64 -852 -335 -1151 -790 -71 -108 -183 -334 -229
-461 -106 -292 -154 -556 -166 -904 -11 -334 -44 -488 -200 -940 -115 -336
-154 -479 -162 -600 -10 -170 28 -278 136 -385 229 -226 748 -329 1746 -346
780 -14 1392 39 1751 151 362 113 520 292 501 569 -9 132 -32 222 -162 611
-166 496 -188 601 -200 940 -15 432 -92 770 -254 1110 -115 242 -257 441 -438
616 -231 222 -486 360 -765 414 -100 19 -318 27 -407 15z m367 -701 c183 -42
343 -137 503 -298 253 -255 416 -617 469 -1041 13 -109 13 -401 0 -510 -51
-407 -210 -772 -447 -1020 -104 -109 -189 -175 -305 -236 l-88 -45 0 103 c0
271 -78 511 -202 623 -223 202 -478 -130 -478 -623 l0 -102 -78 39 c-397 200
-690 685 -762 1261 -13 109 -13 401 0 510 68 545 330 1005 700 1227 214 129
447 167 688 112z"/>
<path d="M1962 3219 c-91 -45 -171 -175 -219 -354 -25 -93 -27 -114 -27 -305
0 -190 2 -212 27 -303 14 -54 42 -131 61 -170 132 -275 354 -275 487 -1 129
266 129 681 0 948 -42 87 -108 163 -165 190 -47 22 -113 20 -164 -5z"/>
<path d="M2990 3222 c-88 -43 -179 -186 -220 -348 -98 -381 4 -856 207 -967
163 -88 319 48 400 350 25 91 27 113 27 303 0 190 -2 212 -27 303 -65 240
-177 377 -308 377 -24 0 -60 -8 -79 -18z"/>
</g>
</svg>
